<svg width="100" height="100" viewBox="0 0 100 100" aria-hidden="true" xmlns="http://www.w3.org/2000/svg">
    <path d="M22.5 13.1v23.4l-15.6-.4c-2.2 0-4.1 1.6-4.3 3.7-.1 1.2.3 2.4 1.1 3.2.8.8 1.9 1.3 3.1 1.3l15.7-.4v48.9c0 1.2 1 2.1 2.1 2.1h56.7c1.2 0 2.1-1 2.1-2.1V13.1c0-4.4-3.6-8-8-8h-45c-4.3 0-7.9 3.6-7.9 8zM82 26.3H69.7c-1.5 0-3 .6-4 1.7l-1.4 1.4c-.6.6-1.5 1-2.4 1H44c-.9 0-1.8-.4-2.4-1L40.3 28c-1.1-1.1-2.5-1.7-4-1.7H23.9v-13c0-3.7 3-6.7 6.7-6.7h44.6c3.7 0 6.7 3 6.7 6.7v6.4H66.7c-.4 0-.7.3-.7.7 0 .4.3.7.7.7H82v5.2zM40.9 36.7v2.8H29.6l-.6-.1v-.6c0-1.2-.9-2.1-2.1-2.2l-3-.1v-8.8h12.3c1.1 0 2.2.4 3 1.2l1.4 1.4c.9.9 2.1 1.4 3.4 1.4h1.4V36h-3.7c-.4 0-.8.3-.8.7zm22.6.7v2c0 2-1.6 3.6-3.6 3.6H46c-2 0-3.6-1.6-3.6-3.6v-2h21.1zM46.9 36v-4.1h12.2V36H46.9zm-23 43.9h10.4l.1.5c.6 3.2 3.4 5.5 6.6 5.5h24c3.2 0 6-2.3 6.6-5.5l.1-.5H82v12.8l-.1.7H24.6l-.7-.1V79.9zm46.3 0l-.2.8c-.6 2.2-2.7 3.8-5 3.8H41c-2.3 0-4.4-1.6-5-3.8l-.2-.7h34.4zm-11.8-1.4H47.6l-.2-.2c-5.6-5.9-6.6-15.5-6.8-19.4v-.6h24.7v.6c-.2 3.9-1.1 13.5-6.8 19.4l-.1.2zM23.9 43.8l3-.1c.7 0 1.4-.4 1.8-1 .2-.4.4-.8.4-1.3v-.6h12.1l.1.4c.8 1.9 2.6 3.2 4.7 3.2h13.9c2.8 0 5.1-2.3 5.1-5.1v-2.7c0-.4-.3-.7-.7-.7h-3.7v-4.1H62c1.3 0 2.5-.5 3.4-1.4l1.4-1.4c.8-.8 1.9-1.2 3-1.2H82v50.7H60.4l.7-.9c5.9-7.9 5.8-19.5 5.7-20 0-.4-.3-.7-.7-.7H39.9c-.4 0-.7.3-.7.7 0 .5-.2 12.1 5.7 20l.7.9H23.9V43.8zm3-5.7c.4 0 .7.3.7.7v2.7c0 .4-.3.7-.7.7l-20.2.6c-.7 0-1.5-.3-2-.8S4 40.7 4 40c.1-1.3 1.4-2.4 2.8-2.4l20.1.5z" fill="#231f20" />
    <path d="M29.5 19.5c0 1.9 1.5 3.4 3.4 3.4s3.4-1.5 3.4-3.4-1.5-3.4-3.4-3.4c-1.9-.1-3.4 1.5-3.4 3.4zm1.5 0c0-1.1.9-2 2-2s2 .9 2 2-.9 2-2 2-2-1-2-2zM40.9 19.5c0 1.9 1.5 3.4 3.4 3.4s3.4-1.5 3.4-3.4-1.5-3.4-3.4-3.4c-1.8-.1-3.4 1.5-3.4 3.4zm1.5 0c0-1.1.9-2 2-2s2 .9 2 2-.9 2-2 2-2-1-2-2zM52.4 19.5c0 1.9 1.5 3.4 3.4 3.4s3.4-1.5 3.4-3.4-1.5-3.4-3.4-3.4c-1.9-.1-3.4 1.5-3.4 3.4zm1.5 0c0-1.1.9-2 2-2s2 .9 2 2-.9 2-2 2-2-1-2-2z" fill="#231f20" />
    <path d="M82.8 25.7h5.7c1.1 0 2-.9 2-2v-8.5c0-1.1-.9-2-2-2h-5.7v12.5zM75.3 27.8v12.3c0 2 1.6 3.5 3.5 3.5h8.1c2 0 3.5 1.6 3.5 3.5v13.1" fill="none" stroke="#231f20" stroke-width="1.5" stroke-miterlimit="10" />
</svg>
