<svg width="100" height="100" viewBox="0 0 100 100" aria-hidden="true" xmlns="http://www.w3.org/2000/svg">
    <path d="M82.7 77.9l-.4-4c-.2-2-1.9-3.6-3.9-3.6h-2.9L74.2 54c-.3-3.3-2.9-6-6.2-6.3h-.4l-.1-.4c-.5-1.6-2-2.7-3.7-2.7h-1.5l8.4-14.4c1-1.8 1.6-3.8 1.6-5.8V12.8l.4-.1c1.8-.6 2.9-2.5 2.6-4.4C75 6.4 73.4 5 71.4 5H28.8c-1.9 0-3.5 1.4-3.9 3.3-.3 1.9.8 3.7 2.6 4.4l.4.1v11.5c0 2 .5 4 1.6 5.8l8.4 14.4h-1.5c-1.7 0-3.2 1.1-3.7 2.7l-.1.4h-.4c-2.5.2-4.7 1.8-5.7 4.1l-.2.4h-3.6c-3 0-5.4 2.4-5.4 5.5v6.1c0 3 2.4 5.4 5.4 5.4h2l-1.3 16.5-.4.1c-1.6.5-2.7 2-2.7 3.7V91c0 2.2 1.8 3.9 3.9 3.9h51.6c2.2 0 3.9-1.8 3.9-3.9v-1.5c0-1.7-1.1-3.2-2.7-3.7l-.4-.1-.2-2.5L80 82c1.7-.6 2.8-2.3 2.7-4.1zM28.8 11.2c-1.2 0-2.1-1-2.1-2.1 0-1.2 1-2.1 2.1-2.1h42.5c1.2 0 2.1 1 2.1 2.1 0 1.2-1 2.1-2.1 2.1H28.8zm2.3 18.1c-.9-1.5-1.3-3.2-1.3-4.9V12.9h40.7v11.4c0 1.7-.5 3.4-1.3 4.9l-8.9 15.3H40l-8.9-15.2zm3.2 19.2c0-1.2 1-2.1 2.1-2.1h27.3c1.2 0 2.1 1 2.1 2.1v2.1H34.3v-2.1zm20.4 10h3.7v5.8H41.9v-5.8h3.7c.5 0 .9-.4.9-.9s-.4-.9-.9-.9h-3.7v-4.3h16.4v4.3h-3.7c-.5 0-.9.4-.9.9.1.5.5.9 1 .9zm2.1 7.6v4.3H43.4v-4.3h13.4zm-29-11.9c0-.3.1-.6.1-.9.5-1.9 1.9-3.3 3.8-3.7l.8-.2v23.4c0 .5.4.9.9.9s.9-.4.9-.9V52.4h5.8v11.3c0 .9.5 1.6 1.2 2.1l.3.2v3.8c0 1.3 1.1 2.4 2.4 2.4h12.1c1.3 0 2.4-1.1 2.4-2.4V66l.3-.2c.7-.4 1.2-1.2 1.2-2.1V52.4h5.8v20.4c0 .5.4.9.9.9s.9-.4.9-.9V49.4l.8.2c2.2.5 3.8 2.4 4 4.6L75 85.6H25.3l2.5-31.4zm-5 13.1c-2 0-3.7-1.6-3.7-3.7v-6.1c0-2 1.6-3.7 3.7-3.7H26l-1.1 13.4h-2.1zm55.3 22.2V91c0 1.2-1 2.1-2.1 2.1H24.3c-1.2 0-2.1-1-2.1-2.1v-1.5c0-1.2 1-2.1 2.1-2.1h51.6c1.2-.1 2.2.9 2.2 2.1zm1.3-9.2l-3 1-.7-9.1h2.7c1.1 0 2 .8 2.1 1.9l.4 4c.1 1-.5 1.9-1.5 2.2z" fill="#231f20" />
    <path d="M42.2 39.8c.2.3.5.5.8.5.3 0 .6-.2.8-.5.2-.3.1-.6 0-.9l-7.4-12.8c-.3-.6-.5-1.2-.5-1.8v-6.2c0-.5-.4-.9-.9-.9s-1 .4-1 .9v6.2c0 1 .3 1.9.7 2.7l7.5 12.8z" fill="#231f20" />
</svg>
