<svg width="100" height="100" viewBox="0 0 100 100" aria-hidden="true" xmlns="http://www.w3.org/2000/svg">
    <path d="M81.4 81.4V35.6c0-2.2-.4-4.4-1.3-6.5L71.9 9.8c0-.1-.1-.2-.1-.2-.1-.1-.2-.2-.3-.2h-.1c-.1 0-.2-.1-.3-.1H71l-40.9-4H30h-.1c-.1 0-.2 0-.3.1-.1 0-.1.1-.2.1 0 0 0 .1-.1.1 0 .1-.1.1-.1.2l-8 19.9c-1.7 4.3-2.6 8.9-2.6 13.6v45.3c0 1.9 1.4 3.6 3.3 3.9l41.8 6.3c.2 0 .4 0 .6-.1h.1L78.8 86c1.6-1.1 2.6-2.8 2.6-4.6zM37.7 7.9l25 2.4v.1l-6.5 24.7h-.1l-26.8-2.8.1-.1 8.3-24.3zm26.7 23.8C63.5 35 63 38.5 63 42v50.7h-.1l-40.6-6.1c-1-.1-1.7-1-1.7-2V39.3c0-4.4.8-8.8 2.5-12.9l7.7-19.2h.1l4.9.5L26.9 34l30.8 3.3 7-26.7h.1l5.1.5-5.5 20.6zm13.4 52.6l-12.9 7.9v-6.7h.1l8.7-4.9c.3-.2.5-.5.5-.8V42.5v-.3l-3.9-12.6c-.3-.5-.8-.8-1.3-.6-.5.2-.8.7-.6 1.2l3.8 12.5v36.5h-.1l-7.2 4.1V42c0-3.3.4-6.6 1.3-9.9L71.3 13l7 16.8c.8 1.8 1.2 3.8 1.2 5.8v45.8c0 1.2-.7 2.3-1.7 2.9z" fill="#231f20" />
    <path d="M30.8 50.8c-3.3 4.6-4.2 10.1-2.5 14.5.4.8 1 1.5 1.8 1.8.8.3 1.8.3 2.6-.1 5.2-2.3 5.6-6.4 6-10 .4-4 .8-7.4 6.7-9.2.8-.2 1.4-1 1.3-1.9 0-.9-.6-1.6-1.4-1.8-4.9-1.2-10.7 1.5-14.5 6.7zM45 45.9c-7.1 2.1-7.6 6.8-8 10.8-.4 3.6-.7 6.6-4.9 8.5-.2.1-.4.1-.6.1-.2 0-.4 0-.5-.1-.4-.1-.6-.4-.8-.8-1.5-3.7-.6-8.6 2.2-12.6 3.2-4.4 8.3-7 12.6-6.2l.5.1-.5.2z" fill="#231f20" />
    <path d="M40.1 59c-.4 3.6-.7 6.6-4.9 8.5-.7.3-1.2 1.1-1.1 1.9.1.8.7 1.4 1.5 1.6.5.1 1.1.1 1.6.1 4.4 0 9.1-2.7 12.1-7 3-4.2 4.1-9.4 2.8-13.5-.3-.9-.9-1.7-1.8-2.1-.5-.3-1.1-.4-1.6-.4-.4 0-.7.1-1.1.2-6.7 2.1-7.1 6.7-7.5 10.7zm8.2-9c.4-.1.9-.1 1.3.1s.7.5.8 1c1.1 3.6.2 8.1-2.5 11.9-2.7 3.8-6.9 6.2-10.7 6.2h-1l.4-.2c4.6-2.4 5-6.3 5.4-9.7.4-4.1.7-7.4 6.3-9.3zM31.2 78.3c.2.2.4.3.6.4l12.7 1.8h.1c.5 0 .9-.4.9-.8 0-.3 0-.5-.2-.7s-.4-.3-.6-.4L32 76.8h-.2c-.2 0-.4.1-.5.2-.2.2-.4.4-.4.6.1.2.2.5.3.7zM35.5 29.4l17.4 1.9h.1c.5 0 .9-.4.9-.8.1-.5-.3-1-.8-1l-17.4-1.9h-.1c-.5 0-.9.4-1 .8 0 .4.4.9.9 1zM39.8 25.2L52 26.5h.1c.5 0 .9-.4.9-.8.1-.5-.3-1-.8-1L40 23.3c-.5 0-1 .3-1 .8-.1.6.3 1 .8 1.1zM28.3 83.7L48 87h.2c.5 0 .9-.3.9-.8.1-.5-.3-1-.8-1.1l-19.7-3.3h-.2c-.5 0-.9.3-.9.8-.1.5.3 1 .8 1.1zM47.8 11.2c-2.8 0-5.1 2.3-5.1 5.1s2.3 5.1 5.1 5.1 5.1-2.3 5.1-5.1c-.1-3.1-2-5.1-5.1-5.1zm0 8.3c-1.8 0-3.2-1.4-3.2-3.2 0-1.8 1.4-3.2 3.2-3.2 2.8 0 3.2 2 3.2 3.2-.1 1.7-1.5 3.2-3.2 3.2z" fill="#231f20" />
</svg>
