<svg width="100" height="100" viewBox="0 0 100 100" aria-hidden="true" xmlns="http://www.w3.org/2000/svg">
    <path d="M23.5 94.9h52.9c2.5 0 4.6-2.1 4.6-4.6V79.1c0-.4-.4-.8-.8-.8h-2.5v-42h3c.4 0 .8-.4.8-.8v-19c0-3-2.5-5.5-5.5-5.5h-8.3V9.4c0-2.4-1.9-4.3-4.3-4.3H36.6c-2.4 0-4.3 1.9-4.3 4.3V11H24c-3 0-5.5 2.5-5.5 5.5v19c0 .4.4.8.8.8h2.1v42.1h-1.7c-.4 0-.8.4-.8.8v11.2c0 2.4 2.1 4.5 4.6 4.5zm44.2-82.3H76c2.1 0 3.9 1.7 3.9 3.9v18.2H67.7V12.6zM33.8 9.4c0-1.5 1.2-2.7 2.7-2.7h26.9c1.5 0 2.7 1.2 2.7 2.7v25.3H33.8V9.4zM54 42.1c-.9 0-1.6-.6-1.6-1.4v-4.4h7.7v4.4c0 .8-.6 1.4-1.4 1.4H54zm3.7 1.5v2.8c0 .8-.7 1.5-1.5 1.5s-1.5-.7-1.5-1.5v-2.8h3zm-16.2-1.5c-.9 0-1.6-.6-1.6-1.4v-4.4h7.7v4.4c0 .8-.6 1.4-1.4 1.4h-4.7zm3.7 1.5v2.8c0 .8-.7 1.5-1.5 1.5s-1.5-.7-1.5-1.5v-2.8h3zM23 78.3v-42h15.3v4.4c0 1.2.8 2.4 1.9 2.8l.4.2v2.8c0 1.7 1.4 3.1 3.1 3.1s3.1-1.4 3.1-3.1v-2.8l.4-.2c1.2-.4 1.9-1.6 1.9-2.8v-4.4h1.6v4.4c0 1.2.8 2.4 1.9 2.8l.4.2v2.8c0 1.7 1.4 3.1 3.1 3.1 1.7 0 3.1-1.4 3.1-3.1v-2.8l.4-.2c1.2-.4 1.9-1.6 1.9-2.8v-4.4H76v42.1H23zm-2.9-43.6V16.5c0-2.1 1.7-3.9 3.9-3.9h8.3v22.1H20.1zm.4 45.2h59v4.4h-59v-4.4zm0 5.9h59v4.5c0 1.7-1.4 3-3 3h-53c-1.7 0-3-1.4-3-3v-4.5z" fill="#231f20" />
    <path d="M58.7 23.4H41.3c-1.1 0-2-.9-2-2v-5.8c0-1.1.9-2 2-2h17.4c1.1 0 2 .9 2 2v5.8c0 1.1-.9 2-2 2zM41.5 29.8c-.8 0-1.5-.7-1.5-1.5s.7-1.5 1.5-1.5 1.5.7 1.5 1.5-.6 1.5-1.5 1.5zM47.2 29.8c-.8 0-1.5-.7-1.5-1.5s.7-1.5 1.5-1.5 1.5.7 1.5 1.5-.7 1.5-1.5 1.5zM52.8 29.8c-.8 0-1.5-.7-1.5-1.5s.7-1.5 1.5-1.5 1.5.7 1.5 1.5-.6 1.5-1.5 1.5zM58.5 29.8c-.8 0-1.5-.7-1.5-1.5s.7-1.5 1.5-1.5 1.5.7 1.5 1.5-.7 1.5-1.5 1.5z" fill="none" stroke="#231f20" stroke-width="1.5" stroke-miterlimit="10" />
    <path d="M63.8 57.4c0-.4-.3-.7-.7-.7H36.9c-.4 0-.7.3-.7.7 0 .5-.2 12.1 5.7 20l.7.9h2l-.2-.2c-5.6-5.9-6.6-15.5-6.8-19.4v-.6h24.7v.6c-.2 3.9-1.1 13.5-6.8 19.4l-.2.2h2l.7-.9c6-7.9 5.9-19.5 5.8-20z" fill="#231f20" />
</svg>
