<svg width="100" height="100" viewBox="0 0 100 100" aria-hidden="true" xmlns="http://www.w3.org/2000/svg">
    <path d="M76.1 46.7h10c5.1 0 9.2-4.1 9.2-9.2V16c0-.4-.3-.7-.7-.7h-27c-.4 0-.7.3-.7.7v3.7h-6.2c-.8 0-1.5.7-1.5 1.5v6.5c0 3.2 2.6 5.8 5.8 5.8h1.9v4c0 5.1 4.1 9.2 9.2 9.2zm-7.8-30h25.4v3.8H73.9c-.4 0-.7.3-.7.7 0 .4.3.7.7.7h19.9v2.9H78.6c-.4 0-.7.3-.7.7 0 .4.3.7.7.7h15.2v11.2c0 4.3-3.5 7.7-7.7 7.7h-10c-4.3 0-7.7-3.5-7.7-7.7V16.7zM65 32.1c-2.4 0-4.4-2-4.4-4.4v-6.6h6.3v11H65zM44 94.6c-4.5 0-7.3-1-8.4-3.1-1-1.8-.5-3.8-.3-4.5 1-3.3 1.9-6.8 2.7-10.1.5-1.9 1-3.9 1.5-5.8 0-.1.1-.2.1-.5 0-.2 0-.4.1-.6l.3-1.1c.2-.9.5-2 .7-2.7.1-.7.3-1.6.5-2.7h-5.7c-.2 0-.7 0-1.3.2-.4.2-.6.4-1 .7-1 .9-1.5 2-1.6 2.2v.1c-.7 1.6-3.7 7.4-8.2 16.1 0 .1-.1.1-.1.2-.4.4-.9.4-1.2.2-.7-.4-1.5-.8-2.2-1.1-.8-.4-1.6-.8-2.3-1.2-.1 0-.1-.1-.2-.1-.1-.1-.3-.4-.3-.7 0-.1 0-.3.1-.4 1.7-3.3 3.3-6.5 5-9.8 1.6-3.2 3.2-6.4 4.8-9.5.2-.3.2-.6.2-.8 0-.4-.1-.8-.2-1l-.6-1.8c-.2-.6-.4-1.2-.6-1.7-.2-.4-.1-1 .6-1.3.8-.3 1.7-.6 2.5-.9.8-.3 1.7-.6 2.4-.8.2-.1.5-.1.7-.1.4.1.5.4.6.7.1.2.2.5.2.8.1.2.1.3.3.7.6 1 1.4 1.6 1.4 1.6.5.4 1 .6 1.5.6h5.2V53c0-.6.6-1.2 1.2-1.2h5v-2.5c0-.6.6-1.2 1.2-1.2h9.1c.6 0 1.2.6 1.2 1.2v2.5h5c.6 0 1.2.6 1.2 1.2v3.8c0 1.4 0 3.5.1 4.8.1 2.7.3 4.7 1.2 7.9 1.7 6 2.6 9.2 3 10.8l.1.5c.1.2.1.6.2.9 4.1-1.7 4.5-3.2 7.4-13.2l.3-1c3.1-11 7.1-15.7 7.3-15.9.1-.2.3-.2.5-.2h5.3c.3 0 .5.2.6.4.1.2.1.5-.1.8 0 .1-4.7 6-7.9 17.4-2.5 9-4.3 15.5-12 18 .2 1.8-.1 3.1-.9 4.1l-.2.2-.1.1c-2.2 2.1-6.4 2.2-6.5 2.2-3.8.1-6.6.2-9.3.2-2.9-.1-5.9-.1-10.1-.2zm25.4-3.4c.6-.8.8-1.9.6-3.6v-.1c-.1-.5-.6-2.6-1-4.1-.1-.2-.1-.4-.2-.6-.2-.7-.4-1.3-.5-1.7l-.1-.4c-.4-1.7-1.2-4.8-3-10.8-.8-2.6-1.1-4.4-1.2-6.4H42.7c-.2 1.3-.4 2.3-.5 3-.2.8-.5 1.9-.7 2.8l-.2.9c0 .1-.1.3-.1.4 0 .2-.1.4-.1.5l-.1.3c-.5 1.9-1 3.9-1.5 5.8-.8 3.3-1.7 6.8-2.7 10.2-.2.6-.6 2.1.2 3.4.5 1.1 2.2 2.3 7.1 2.3 7.5.2 11.3.2 19.6 0 0 0 3.8-.1 5.6-1.8l.1-.1zm16.4-38.4c-.8 1.1-4.1 5.7-6.8 15.1l-.3 1c-2.9 10.3-3.5 12.2-8.4 14.2.4 1.5.7 2.7.9 3.5 6.8-2.3 8.4-8.2 10.8-17 2.5-8.9 5.8-14.5 7.3-16.8h-3.5zM23 82zm7.4-15.9c.2-.6 1-1.9 2-2.8.4-.4.8-.7 1.4-1 .8-.3 1.4-.4 1.8-.4h.9v-4.3h-.3c-.9-.1-1.7-.4-2.4-.9 0 0-1.1-.8-1.8-2-.2-.4-.4-.6-.5-1 0-.1-.1-.2-.1-.3-.7.2-1.4.5-2.1.7-.7.3-1.4.5-2.1.7.2.5.3.9.5 1.4l.6 1.8c.1.3.3.8.3 1.4 0 .3 0 .8-.3 1.4-1.6 3.2-3.2 6.4-4.9 9.5-1.6 3.1-3.2 6.2-4.8 9.4.6.3 1.2.6 1.9.9.6.3 1.3.6 1.9.9 4.4-8.2 7.3-13.8 8-15.4zm10.7-8.4h-3.2V62h3.2v-4.3zm22.8 4c-.1-1.4-.1-3.5-.1-4.9v-3.5H42.7v8.8h21.2v-.4zm-6.3-12.1H49v2.2h8.6v-2.2zM40 10.1c-3 0-5.9 1.2-8 3.3-2.1 2.1-3.3 5-3.3 8s1.2 5.9 3.3 8c2.1 2.1 5 3.3 8 3.3s5.9-1.2 8-3.3c2.1-2.1 3.3-5 3.3-8s-1.2-5.9-3.3-8c-2.1-2.1-5-3.3-8-3.3zm7 18.4c-1.9 1.9-4.4 2.9-7 2.9-2.6 0-5.1-1-7-2.9-1.9-1.9-2.9-4.4-2.9-7 0-2.6 1-5.1 2.9-7 1.9-1.9 4.4-2.9 7-2.9 2.6 0 5.1 1 7 2.9 1.9 1.9 2.9 4.3 2.9 7s-1.1 5.1-2.9 7z" fill="#231f20" />
    <path d="M40 14.3c-.4 0-.7.3-.7.7 0 .4.3.7.7.7 1.5 0 3 .6 4.1 1.7s1.7 2.5 1.7 4.1c0 .4.3.7.7.7s.7-.3.7-.7c0-1.9-.7-3.7-2.1-5.1-1.4-1.4-3.2-2.1-5.1-2.1z" fill="#231f20" />
    <path d="M32.9 35.1c2.3 1.2 4.6 1.7 7.1 1.7 2.9 0 5.8-.8 8.2-2.4l.1-.1 2.4 2.4c.6.6 1.4.9 2.3.9.9 0 1.7-.3 2.3-.9.6-.6.9-1.4.9-2.3 0-.9-.3-1.7-.9-2.3l-2.4-2.4.1-.1c1.6-2.5 2.4-5.3 2.4-8.2 0-4.1-1.6-7.9-4.5-10.8-3-2.9-6.8-4.5-10.9-4.5-2.9 0-5.8.8-8.2 2.4l-.1.1-2.4-2.4c-.6-.6-1.4-.9-2.3-.9-.8 0-1.6.3-2.3.9-.6.6-.9 1.4-.9 2.3s.3 1.7.9 2.3l2.4 2.4H27c-1.6 2.5-2.4 5.3-2.4 8.2 0 2.4.6 4.8 1.7 7v.1l-.1.1L7 45.4c-1.3 1.2-2.2 2.9-2.2 4.6-.1 1.8.6 3.5 1.9 4.8 1.2 1.2 2.9 1.9 4.6 1.9h.2c1.8-.1 3.5-.9 4.6-2.2l16.8-19.4zm21.3-1.9c.3.3.5.8.5 1.2 0 .5-.2.9-.5 1.2-.3.3-.8.5-1.2.5-.5 0-.9-.2-1.2-.5l-2.2-2.2.1-.1c.4-.4.8-.7 1.2-1.1.4-.4.7-.8 1.1-1.2l2.2 2.2zM25.7 9.7c-.7-.7-.7-1.8 0-2.5.3-.3.8-.5 1.2-.5.5 0 .9.2 1.2.5l2.2 2.2-.1.1c-.4.4-.8.7-1.2 1.1-.4.4-.7.8-1.1 1.2l.1.2-2.3-2.3zm2.9 3.8c.3-.4.5-.7.7-.9.2-.3.5-.6.8-.9.3-.3.6-.6.9-.8.3-.2.6-.5.9-.7v-.1h.1c2.3-1.6 5.1-2.5 8-2.5 3.7 0 7.2 1.4 9.8 4.1 4.8 4.8 5.4 12.3 1.5 17.8v.1c-.2.3-.4.6-.7.9-.3.3-.5.6-.7.8l-.1.1h-.1l-.8.8c-.3.2-.6.5-.9.7h-.1c-2.4 1.7-5.2 2.5-8 2.5-2.4 0-4.7-.6-6.9-1.8-.5-.3-.9-.6-1.4-.9 0 0-.1 0-.1-.1 0 0-.1 0-.1-.1-.5-.4-.9-.8-1.3-1.1-.4-.4-.8-.8-1.1-1.3l-.1-.1-.1-.1c-.4-.5-.7-1-1-1.4-2.5-4.8-2.3-10.6.8-15zM11.4 55.2h-.2c-1.3 0-2.6-.5-3.5-1.5-1-1-1.5-2.3-1.5-3.7 0-1.4.7-2.7 1.7-3.6l14.8-12.9 2.6 2.6c.3.3.8.3 1 0 .1-.1.2-.3.2-.5s-.1-.4-.2-.5l-2.5-2.5 3.2-2.8.1.1c.6.9 1.2 1.7 1.9 2.4s1.5 1.4 2.4 1.9l.1.1-.1.1L15 53.5a4.6 4.6 0 01-3.6 1.7z" fill="#231f20" />
</svg>
