<svg width="100" height="100" x="0" y="0" viewBox="0 0 100 100" aria-hidden="true" xmlns="http://www.w3.org/2000/svg">
    <path d="M82.1 89.2c0-2.8-2.1-5.2-4.9-5.6l-.5-.1v-8.9c0-.5-.4-.8-.8-.8s-.9.3-.9.7v8.9h-7.4l.4-.8c1.3-2.8 2-5.8 2.1-8.7v-.5l.5-.1c4.4-.6 7.8-4.5 7.8-9V61c0-3.4-2-6.5-5.2-7.9-1.1-.5-2.2-.7-3.4-.7h-5.1l.2-1.3c0-.2 0-.5-.2-.7-.2-.2-.4-.3-.7-.3h-3.6v-7.5h.6c4.8-.4 8.5-4.3 8.7-9.1l.7-20H75V51c0 .5.4.8.8.8s.8-.4.8-.8V13.5h.6c2.2-.1 3.9-2 3.9-4.2 0-2.3-1.9-4.2-4.2-4.2H23c-2.3 0-4.2 1.9-4.2 4.2 0 2.2 1.7 4 3.9 4.2h.6v70l-.5.1c-2.8.4-4.9 2.8-4.9 5.6 0 3.2 2.6 5.7 5.7 5.7h52.8c3.2 0 5.7-2.6 5.7-5.7zM23 11.8c-1.4 0-2.5-1.1-2.5-2.5s1.1-2.5 2.5-2.5h54c1.4 0 2.5 1.1 2.5 2.5s-1.1 2.5-2.5 2.5H23zm10 39.5l2.7 4.8-.2.3c-2.3 3-9.2 13.9-3.7 26.1l.4.8H25v-70h4.7l.7 20c.2 4.8 3.9 8.7 8.7 9.1h.6v7.5h-5.9c-.3 0-.6.2-.7.4-.3.5-.3.8-.1 1zm35-18.7H32l-.7-19.1h37.3L68 32.6zm-7.8 8.3H39.8c-3.6 0-6.7-2.4-7.5-5.9l-.2-.7h35.8l-.2.7c-.9 3.5-4 5.9-7.5 5.9zm-1.5 1.7v7.5H41.3v-7.5h17.4zm4.3 9.2l-.7 3.6H37.2l-2.1-3.6H63zM70 71c-.6-7.5-4.7-13.2-5.9-14.8L64 56l.4-1.9h5.5c3.3 0 4.9 2 4.9 2.1 1.3 1.3 2 3 2 4.8v3.3c0 3.5-2.5 6.5-5.9 7.2l-.7.1-.2-.6zm-4.1 12.1l-.2.3H34.1l-.2-.3c-6.6-12.5 1.4-23.7 3-25.8l.2-.2h25.5l.2.2c1.3 1.6 5.4 7.5 5.6 15.2.1 3.7-.8 7.3-2.5 10.6zm14.5 6.1c0 2.2-1.8 4-4 4H23.6c-2.2 0-4-1.8-4-4s1.7-4 3.9-4h53.1c2.1 0 3.8 1.8 3.8 4z" fill="#231f20" />
</svg>
